# 3ds Max Wavefront OBJ Exporter v0.97b - (c)2007 guruware
# ì¬‚µ‚½ƒtƒ@ƒCƒ‹ : 26.12.2019 14:55:50

mtllib Build_C_Bot.mtl

#
# object Build_C_Bot
#

v  -1.5968 -0.0953 -1.6365
v  -1.5506 -0.1169 -1.6365
v  -1.5326 -0.0784 -1.6365
v  -1.5788 -0.0568 -1.6365
v  -1.5788 -0.0568 -1.8518
v  -1.5326 -0.0784 -1.8518
v  -1.5506 -0.1169 -1.8518
v  -1.5968 -0.0953 -1.8518
v  -1.5685 -0.1555 -1.6604
v  -1.5685 -0.1555 -1.6365
v  -1.6148 -0.1339 -1.6365
v  -1.6148 -0.1339 -1.6604
v  -1.6893 -0.0522 -1.6604
v  -1.6893 -0.0522 -1.6365
v  -1.6714 -0.0137 -1.6365
v  -1.6714 -0.0137 -1.6604
v  -1.5609 -0.0183 -1.6604
v  -1.5609 -0.0183 -1.6365
v  -1.5146 -0.0398 -1.6365
v  -1.5146 -0.0398 -1.6604
v  -1.4401 -0.1215 -1.6604
v  -1.4401 -0.1215 -1.6365
v  -1.4580 -0.1601 -1.6365
v  -1.4580 -0.1601 -1.6604
v  -1.5685 -0.1555 -1.8518
v  -1.5685 -0.1555 -1.8040
v  -1.6148 -0.1339 -1.8040
v  -1.6148 -0.1339 -1.8518
v  -1.5685 -0.1555 -1.7561
v  -1.6148 -0.1339 -1.7561
v  -1.5685 -0.1555 -1.7083
v  -1.6148 -0.1339 -1.7083
v  -1.6893 -0.0522 -1.8518
v  -1.6893 -0.0522 -1.8040
v  -1.6714 -0.0137 -1.8040
v  -1.6714 -0.0137 -1.8518
v  -1.6893 -0.0522 -1.7561
v  -1.6714 -0.0137 -1.7561
v  -1.6893 -0.0522 -1.7083
v  -1.6714 -0.0137 -1.7083
v  -1.5609 -0.0183 -1.8518
v  -1.5609 -0.0183 -1.8040
v  -1.5146 -0.0398 -1.8040
v  -1.5146 -0.0398 -1.8518
v  -1.5609 -0.0183 -1.7561
v  -1.5146 -0.0398 -1.7561
v  -1.5609 -0.0183 -1.7083
v  -1.5146 -0.0398 -1.7083
v  -1.4401 -0.1215 -1.8518
v  -1.4401 -0.1215 -1.8040
v  -1.4580 -0.1601 -1.8040
v  -1.4580 -0.1601 -1.8518
v  -1.4401 -0.1215 -1.7561
v  -1.4580 -0.1601 -1.7561
v  -1.4401 -0.1215 -1.7083
v  -1.4580 -0.1601 -1.7083
v  -1.6431 -0.0738 -1.6365
v  -1.6251 -0.0352 -1.6365
v  -1.4863 -0.0999 -1.6365
v  -1.5043 -0.1385 -1.6365
v  -1.6251 -0.0352 -1.8518
v  -1.6431 -0.0738 -1.8518
v  -1.5043 -0.1385 -1.8518
v  -1.4863 -0.0999 -1.8518
v  -1.4760 -0.1986 -1.6604
v  -1.4760 -0.1986 -1.6365
v  -1.5223 -0.1770 -1.6365
v  -1.5223 -0.1770 -1.6604
v  -1.6534 0.0249 -1.6604
v  -1.6534 0.0249 -1.6365
v  -1.6071 0.0033 -1.6365
v  -1.6071 0.0033 -1.6604
v  -1.4760 -0.1986 -1.8518
v  -1.4760 -0.1986 -1.8040
v  -1.5223 -0.1770 -1.8040
v  -1.5223 -0.1770 -1.8518
v  -1.7073 -0.0908 -1.8040
v  -1.7073 -0.0908 -1.8518
v  -1.6610 -0.1123 -1.8518
v  -1.6610 -0.1123 -1.8040
v  -1.4760 -0.1986 -1.7561
v  -1.5223 -0.1770 -1.7561
v  -1.7073 -0.0908 -1.7561
v  -1.6610 -0.1123 -1.7561
v  -1.4760 -0.1986 -1.7083
v  -1.5223 -0.1770 -1.7083
v  -1.7073 -0.0908 -1.7083
v  -1.6610 -0.1123 -1.7083
v  -1.7073 -0.0908 -1.6604
v  -1.6610 -0.1123 -1.6604
v  -1.6534 0.0249 -1.8518
v  -1.6534 0.0249 -1.8040
v  -1.6071 0.0033 -1.8040
v  -1.6071 0.0033 -1.8518
v  -1.4221 -0.0830 -1.8040
v  -1.4221 -0.0830 -1.8518
v  -1.4683 -0.0614 -1.8518
v  -1.4683 -0.0614 -1.8040
v  -1.6534 0.0249 -1.7561
v  -1.6071 0.0033 -1.7561
v  -1.4221 -0.0830 -1.7561
v  -1.4683 -0.0614 -1.7561
v  -1.6534 0.0249 -1.7083
v  -1.6071 0.0033 -1.7083
v  -1.4221 -0.0830 -1.7083
v  -1.4683 -0.0614 -1.7083
v  -1.4221 -0.0830 -1.6604
v  -1.4683 -0.0614 -1.6604
v  -1.7073 -0.0908 -1.6365
v  -1.4221 -0.0830 -1.6365
v  -1.6610 -0.1123 -1.6365
v  -1.4683 -0.0614 -1.6365
# 112 vertices

vn 0.0000 -0.0000 1.0000
vn -0.0000 -0.0000 1.0000
vn -0.0000 0.0000 -1.0000
vn -0.4226 -0.9063 -0.0000
vn -0.4226 -0.9063 0.0000
vn -0.9063 0.4226 0.0000
vn 0.4226 0.9063 0.0000
vn 0.4226 0.9063 -0.0000
vn 0.9063 -0.4226 -0.0000
# 9 vertex normals

vt 0.1121 0.1126 0.0000
vt 0.1121 0.1615 0.0000
vt 0.0714 0.1615 0.0000
vt 0.0714 0.1126 0.0000
vt 0.2539 0.1132 0.0000
vt 0.2539 0.1621 0.0000
vt 0.2131 0.1621 0.0000
vt 0.2131 0.1132 0.0000
vt 0.1772 0.4328 0.0000
vt 0.1772 0.4137 0.0000
vt 0.2150 0.4150 0.0000
vt 0.2150 0.4339 0.0000
vt 0.0818 0.4324 0.0000
vt 0.0818 0.4134 0.0000
vt 0.0617 0.4159 0.0000
vt 0.0617 0.4345 0.0000
vt 0.1775 0.4325 0.0000
vt 0.1775 0.4134 0.0000
vt 0.2153 0.4146 0.0000
vt 0.2153 0.4336 0.0000
vt 0.0617 0.4346 0.0000
vt 0.0617 0.4160 0.0000
vt 0.0818 0.4135 0.0000
vt 0.0818 0.4325 0.0000
vt 0.1771 0.5858 0.0000
vt 0.1771 0.5475 0.0000
vt 0.2149 0.5476 0.0000
vt 0.2148 0.5855 0.0000
vt 0.1771 0.5093 0.0000
vt 0.2149 0.5097 0.0000
vt 0.1771 0.4710 0.0000
vt 0.2149 0.4718 0.0000
vt 0.0817 0.5847 0.0000
vt 0.0817 0.5467 0.0000
vt 0.0617 0.5463 0.0000
vt 0.0617 0.5836 0.0000
vt 0.0818 0.5086 0.0000
vt 0.0617 0.5091 0.0000
vt 0.0818 0.4705 0.0000
vt 0.0617 0.4718 0.0000
vt 0.1774 0.5854 0.0000
vt 0.1774 0.5472 0.0000
vt 0.2152 0.5473 0.0000
vt 0.2152 0.5852 0.0000
vt 0.1775 0.5090 0.0000
vt 0.2152 0.5094 0.0000
vt 0.1775 0.4707 0.0000
vt 0.2153 0.4715 0.0000
vt 0.0617 0.5837 0.0000
vt 0.0617 0.5464 0.0000
vt 0.0817 0.5848 0.0000
vt 0.0817 0.5087 0.0000
vt 0.0617 0.4719 0.0000
vt 0.0817 0.4706 0.0000
vt 0.1121 0.0147 0.0000
vt 0.1121 0.0637 0.0000
vt 0.0714 0.0637 0.0000
vt 0.0714 0.0147 0.0000
vt 0.0714 0.2594 0.0000
vt 0.0714 0.2105 0.0000
vt 0.1121 0.2105 0.0000
vt 0.1121 0.2594 0.0000
vt 0.2539 0.0153 0.0000
vt 0.2539 0.0643 0.0000
vt 0.2131 0.0643 0.0000
vt 0.2131 0.0153 0.0000
vt 0.2131 0.2600 0.0000
vt 0.2131 0.2111 0.0000
vt 0.2539 0.2111 0.0000
vt 0.2539 0.2600 0.0000
vt 0.1016 0.4306 0.0000
vt 0.1016 0.4111 0.0000
vt 0.1394 0.4124 0.0000
vt 0.1394 0.4317 0.0000
vt 0.1019 0.4303 0.0000
vt 0.1019 0.4108 0.0000
vt 0.1397 0.4121 0.0000
vt 0.1397 0.4314 0.0000
vt 0.1016 0.5863 0.0000
vt 0.1016 0.5474 0.0000
vt 0.1393 0.5475 0.0000
vt 0.1393 0.5860 0.0000
vt 0.2904 0.5478 0.0000
vt 0.2903 0.5850 0.0000
vt 0.2526 0.5852 0.0000
vt 0.2526 0.5477 0.0000
vt 0.1016 0.5085 0.0000
vt 0.1394 0.5089 0.0000
vt 0.2904 0.5105 0.0000
vt 0.2527 0.5101 0.0000
vt 0.1016 0.4695 0.0000
vt 0.1394 0.4703 0.0000
vt 0.2905 0.4733 0.0000
vt 0.2527 0.4726 0.0000
vt 0.2905 0.4361 0.0000
vt 0.2527 0.4350 0.0000
vt 0.1019 0.5860 0.0000
vt 0.1019 0.5471 0.0000
vt 0.1397 0.5471 0.0000
vt 0.1397 0.5857 0.0000
vt 0.2907 0.5474 0.0000
vt 0.2907 0.5846 0.0000
vt 0.2529 0.5849 0.0000
vt 0.2529 0.5474 0.0000
vt 0.1019 0.5081 0.0000
vt 0.1397 0.5085 0.0000
vt 0.2908 0.5102 0.0000
vt 0.2530 0.5098 0.0000
vt 0.1019 0.4692 0.0000
vt 0.1397 0.4700 0.0000
vt 0.2908 0.4730 0.0000
vt 0.2530 0.4722 0.0000
vt 0.2909 0.4358 0.0000
vt 0.2531 0.4347 0.0000
vt 0.1529 0.1126 0.0000
vt 0.1529 0.1615 0.0000
vt 0.0306 0.1615 0.0000
vt 0.0306 0.1126 0.0000
vt 0.2946 0.1132 0.0000
vt 0.2946 0.1621 0.0000
vt 0.1723 0.1621 0.0000
vt 0.1723 0.1132 0.0000
vt 0.1018 0.4303 0.0000
vt 0.1019 0.4109 0.0000
vt 0.0416 0.4367 0.0000
vt 0.0416 0.4184 0.0000
vt 0.1018 0.5859 0.0000
vt 0.1018 0.5470 0.0000
vt 0.0417 0.5460 0.0000
vt 0.0417 0.5825 0.0000
vt 0.1018 0.5081 0.0000
vt 0.0417 0.5095 0.0000
vt 0.1018 0.4692 0.0000
vt 0.0416 0.4730 0.0000
vt 0.0416 0.4366 0.0000
vt 0.0416 0.5826 0.0000
vt 0.0416 0.5461 0.0000
vt 0.1018 0.5471 0.0000
vt 0.1017 0.5860 0.0000
vt 0.0416 0.5096 0.0000
vt 0.1018 0.5082 0.0000
vt 0.0416 0.4731 0.0000
vt 0.1018 0.4693 0.0000
vt 0.1018 0.4304 0.0000
vt 0.1529 0.0147 0.0000
vt 0.1529 0.0637 0.0000
vt 0.0306 0.0637 0.0000
vt 0.0306 0.0147 0.0000
vt 0.0306 0.2594 0.0000
vt 0.0306 0.2105 0.0000
vt 0.1529 0.2105 0.0000
vt 0.1529 0.2594 0.0000
vt 0.2946 0.0153 0.0000
vt 0.2946 0.0643 0.0000
vt 0.1723 0.0643 0.0000
vt 0.1723 0.0153 0.0000
vt 0.1723 0.2600 0.0000
vt 0.1723 0.2111 0.0000
vt 0.2946 0.2111 0.0000
vt 0.2946 0.2600 0.0000
vt 0.2528 0.4162 0.0000
vt 0.2906 0.4175 0.0000
vt 0.2531 0.4159 0.0000
vt 0.2909 0.4172 0.0000
vt 0.0416 0.4183 0.0000
vt 0.1018 0.4110 0.0000
# 166 texture coords

o Build_C_Bot
g Build_C_Bot
usemtl Builsings
s 2
f 1/1/1 2/2/1 3/3/1 
f 3/3/1 4/4/2 1/1/1 
s 4
f 5/5/3 6/6/3 7/7/3 
f 7/7/3 8/8/3 5/5/3 
s 8
f 9/9/4 10/10/5 11/11/4 
f 11/11/4 12/12/4 9/9/4 
s 16
f 13/13/6 14/14/6 15/15/6 
f 15/15/6 16/16/6 13/13/6 
s 32
f 17/17/7 18/18/8 19/19/8 
f 19/19/8 20/20/7 17/17/7 
s 64
f 21/21/9 22/22/9 23/23/9 
f 23/23/9 24/24/9 21/21/9 
s 8
f 25/25/4 26/26/4 27/27/4 
f 27/27/4 28/28/4 25/25/4 
f 26/26/4 29/29/4 30/30/4 
f 30/30/4 27/27/4 26/26/4 
f 29/29/4 31/31/4 32/32/4 
f 32/32/4 30/30/4 29/29/4 
f 31/31/4 9/9/4 12/12/4 
f 12/12/4 32/32/4 31/31/4 
s 16
f 33/33/6 34/34/6 35/35/6 
f 35/35/6 36/36/6 33/33/6 
f 34/34/6 37/37/6 38/38/6 
f 38/38/6 35/35/6 34/34/6 
f 37/37/6 39/39/6 40/40/6 
f 40/40/6 38/38/6 37/37/6 
f 39/39/6 13/13/6 16/16/6 
f 16/16/6 40/40/6 39/39/6 
s 32
f 41/41/7 42/42/7 43/43/7 
f 43/43/7 44/44/7 41/41/7 
f 42/42/7 45/45/7 46/46/7 
f 46/46/7 43/43/7 42/42/7 
f 45/45/7 47/47/7 48/48/7 
f 48/48/7 46/46/7 45/45/7 
f 47/47/7 17/17/7 20/20/7 
f 20/20/7 48/48/7 47/47/7 
s 64
f 49/49/9 50/50/9 51/34/9 
f 51/34/9 52/51/9 49/49/9 
f 50/50/9 53/38/9 54/52/9 
f 54/52/9 51/34/9 50/50/9 
f 53/38/9 55/53/9 56/54/9 
f 56/54/9 54/52/9 53/38/9 
f 55/53/9 21/21/9 24/24/9 
f 24/24/9 56/54/9 55/53/9 
s 2
f 14/55/1 57/56/1 58/57/1 
f 58/57/1 15/58/1 14/55/1 
f 57/56/1 1/1/1 4/4/2 
f 4/4/2 58/57/1 57/56/1 
f 22/59/2 59/60/2 60/61/1 
f 60/61/1 23/62/1 22/59/2 
f 59/60/2 3/3/1 2/2/1 
f 2/2/1 60/61/1 59/60/2 
s 4
f 36/63/3 61/64/3 62/65/3 
f 62/65/3 33/66/3 36/63/3 
f 61/64/3 5/5/3 8/8/3 
f 8/8/3 62/65/3 61/64/3 
f 52/67/3 63/68/3 64/69/3 
f 64/69/3 49/70/3 52/67/3 
f 63/68/3 7/7/3 6/6/3 
f 6/6/3 64/69/3 63/68/3 
s 8
f 65/71/4 66/72/4 67/73/4 
f 67/73/4 68/74/4 65/71/4 
f 68/74/4 67/73/4 10/10/5 
f 10/10/5 9/9/4 68/74/4 
s 32
f 69/75/8 70/76/8 71/77/8 
f 71/77/8 72/78/7 69/75/8 
f 72/78/7 71/77/8 18/18/8 
f 18/18/8 17/17/7 72/78/7 
s 8
f 73/79/4 74/80/4 75/81/4 
f 75/81/4 76/82/4 73/79/4 
f 76/82/4 75/81/4 26/26/4 
f 26/26/4 25/25/4 76/82/4 
f 77/83/4 78/84/4 79/85/4 
f 79/85/4 80/86/4 77/83/4 
f 80/86/4 79/85/4 28/28/4 
f 28/28/4 27/27/4 80/86/4 
f 74/80/4 81/87/4 82/88/4 
f 82/88/4 75/81/4 74/80/4 
f 75/81/4 82/88/4 29/29/4 
f 29/29/4 26/26/4 75/81/4 
f 83/89/4 77/83/4 80/86/4 
f 80/86/4 84/90/4 83/89/4 
f 84/90/4 80/86/4 27/27/4 
f 27/27/4 30/30/4 84/90/4 
f 81/87/4 85/91/4 86/92/4 
f 86/92/4 82/88/4 81/87/4 
f 82/88/4 86/92/4 31/31/4 
f 31/31/4 29/29/4 82/88/4 
f 87/93/4 83/89/4 84/90/4 
f 84/90/4 88/94/4 87/93/4 
f 88/94/4 84/90/4 30/30/4 
f 30/30/4 32/32/4 88/94/4 
f 85/91/4 65/71/4 68/74/4 
f 68/74/4 86/92/4 85/91/4 
f 86/92/4 68/74/4 9/9/4 
f 9/9/4 31/31/4 86/92/4 
f 89/95/4 87/93/4 88/94/4 
f 88/94/4 90/96/4 89/95/4 
f 90/96/4 88/94/4 32/32/4 
f 32/32/4 12/12/4 90/96/4 
s 32
f 91/97/7 92/98/7 93/99/7 
f 93/99/7 94/100/7 91/97/7 
f 94/100/7 93/99/7 42/42/7 
f 42/42/7 41/41/7 94/100/7 
f 95/101/7 96/102/7 97/103/7 
f 97/103/7 98/104/7 95/101/7 
f 98/104/7 97/103/7 44/44/7 
f 44/44/7 43/43/7 98/104/7 
f 92/98/7 99/105/7 100/106/7 
f 100/106/7 93/99/7 92/98/7 
f 93/99/7 100/106/7 45/45/7 
f 45/45/7 42/42/7 93/99/7 
f 101/107/7 95/101/7 98/104/7 
f 98/104/7 102/108/7 101/107/7 
f 102/108/7 98/104/7 43/43/7 
f 43/43/7 46/46/7 102/108/7 
f 99/105/7 103/109/7 104/110/7 
f 104/110/7 100/106/7 99/105/7 
f 100/106/7 104/110/7 47/47/7 
f 47/47/7 45/45/7 100/106/7 
f 105/111/7 101/107/7 102/108/7 
f 102/108/7 106/112/7 105/111/7 
f 106/112/7 102/108/7 46/46/7 
f 46/46/7 48/48/7 106/112/7 
f 103/109/7 69/75/8 72/78/7 
f 72/78/7 104/110/7 103/109/7 
f 104/110/7 72/78/7 17/17/7 
f 17/17/7 47/47/7 104/110/7 
f 107/113/7 105/111/7 106/112/7 
f 106/112/7 108/114/7 107/113/7 
f 108/114/7 106/112/7 48/48/7 
f 48/48/7 20/20/7 108/114/7 
s 2
f 11/115/1 10/116/1 2/2/1 
f 2/2/1 1/1/1 11/115/1 
f 19/117/1 18/118/2 4/4/2 
f 4/4/2 3/3/1 19/117/1 
s 4
f 41/119/3 44/120/3 6/6/3 
f 6/6/3 5/5/3 41/119/3 
f 25/121/3 28/122/3 8/8/3 
f 8/8/3 7/7/3 25/121/3 
s 16
f 89/123/6 109/124/6 14/14/6 
f 14/14/6 13/13/6 89/123/6 
s 64
f 107/125/9 110/126/9 22/22/9 
f 22/22/9 21/21/9 107/125/9 
s 16
f 78/127/6 77/128/6 34/34/6 
f 34/34/6 33/33/6 78/127/6 
f 92/129/6 91/130/6 36/36/6 
f 36/36/6 35/35/6 92/129/6 
f 77/128/6 83/131/6 37/37/6 
f 37/37/6 34/34/6 77/128/6 
f 99/132/6 92/129/6 35/35/6 
f 35/35/6 38/38/6 99/132/6 
f 83/131/6 87/133/6 39/39/6 
f 39/39/6 37/37/6 83/131/6 
f 103/134/6 99/132/6 38/38/6 
f 38/38/6 40/40/6 103/134/6 
f 87/133/6 89/123/6 13/13/6 
f 13/13/6 39/39/6 87/133/6 
f 69/135/6 103/134/6 40/40/6 
f 40/40/6 16/16/6 69/135/6 
s 64
f 96/136/9 95/137/9 50/50/9 
f 50/50/9 49/49/9 96/136/9 
f 74/138/9 73/139/9 52/51/9 
f 52/51/9 51/34/9 74/138/9 
f 95/137/9 101/140/9 53/38/9 
f 53/38/9 50/50/9 95/137/9 
f 81/141/9 74/138/9 51/34/9 
f 51/34/9 54/52/9 81/141/9 
f 101/140/9 105/142/9 55/53/9 
f 55/53/9 53/38/9 101/140/9 
f 85/143/9 81/141/9 54/52/9 
f 54/52/9 56/54/9 85/143/9 
f 105/142/9 107/125/9 21/21/9 
f 21/21/9 55/53/9 105/142/9 
f 65/144/9 85/143/9 56/54/9 
f 56/54/9 24/24/9 65/144/9 
s 2
f 109/145/1 111/146/1 57/56/1 
f 57/56/1 14/55/1 109/145/1 
f 71/147/1 70/148/1 15/58/1 
f 15/58/1 58/57/1 71/147/1 
f 111/146/1 11/115/1 1/1/1 
f 1/1/1 57/56/1 111/146/1 
f 18/118/2 71/147/1 58/57/1 
f 58/57/1 4/4/2 18/118/2 
f 110/149/2 112/150/1 59/60/2 
f 59/60/2 22/59/2 110/149/2 
f 67/151/1 66/152/1 23/62/1 
f 23/62/1 60/61/1 67/151/1 
f 112/150/1 19/117/1 3/3/1 
f 3/3/1 59/60/2 112/150/1 
f 10/116/1 67/151/1 60/61/1 
f 60/61/1 2/2/1 10/116/1 
s 4
f 91/153/3 94/154/3 61/64/3 
f 61/64/3 36/63/3 91/153/3 
f 79/155/3 78/156/3 33/66/3 
f 33/66/3 62/65/3 79/155/3 
f 94/154/3 41/119/3 5/5/3 
f 5/5/3 61/64/3 94/154/3 
f 28/122/3 79/155/3 62/65/3 
f 62/65/3 8/8/3 28/122/3 
f 73/157/3 76/158/3 63/68/3 
f 63/68/3 52/67/3 73/157/3 
f 97/159/3 96/160/3 49/70/3 
f 49/70/3 64/69/3 97/159/3 
f 76/158/3 25/121/3 7/7/3 
f 7/7/3 63/68/3 76/158/3 
f 44/120/3 97/159/3 64/69/3 
f 64/69/3 6/6/3 44/120/3 
s 8
f 89/95/4 90/96/4 111/161/4 
f 111/161/4 109/162/5 89/95/4 
f 90/96/4 12/12/4 11/11/4 
f 11/11/4 111/161/4 90/96/4 
s 32
f 107/113/7 108/114/7 112/163/8 
f 112/163/8 110/164/8 107/113/7 
f 108/114/7 20/20/7 19/19/8 
f 19/19/8 112/163/8 108/114/7 
s 16
f 69/135/6 16/16/6 15/15/6 
f 15/15/6 70/165/6 69/135/6 
s 64
f 65/144/9 24/24/9 23/23/9 
f 23/23/9 66/166/9 65/144/9 
# 220 faces

