# 3ds Max Wavefront OBJ Exporter v0.97b - (c)2007 guruware
# ì¬‚µ‚½ƒtƒ@ƒCƒ‹ : 26.12.2019 14:56:44

mtllib Build_B_Bot.mtl

#
# object Build_B_Bot
#

v  1.9091 -0.6584 -1.9927
v  1.9495 -0.6245 -1.9927
v  2.0061 -0.6919 -1.9927
v  1.9657 -0.7258 -1.9927
v  2.0627 -0.7593 -1.7947
v  2.0627 -0.7593 -1.7452
v  2.0222 -0.7932 -1.7452
v  2.0222 -0.7932 -1.7947
v  1.8848 -0.7937 -1.7947
v  1.8848 -0.7937 -1.7452
v  1.8644 -0.7694 -1.7452
v  1.8282 -0.7263 -1.7854
v  1.8282 -0.7263 -1.7947
v  1.8525 -0.5910 -1.7947
v  1.8525 -0.5910 -1.7452
v  1.8930 -0.5571 -1.7452
v  1.8930 -0.5571 -1.7947
v  2.0304 -0.5566 -1.7947
v  2.0304 -0.5566 -1.7452
v  2.0870 -0.6240 -1.7452
v  2.0870 -0.6240 -1.7947
v  2.0627 -0.7593 -1.9927
v  2.0627 -0.7593 -1.9432
v  2.0222 -0.7932 -1.9432
v  2.0222 -0.7932 -1.9927
v  2.0627 -0.7593 -1.8937
v  2.0222 -0.7932 -1.8937
v  2.0627 -0.7593 -1.8442
v  2.0222 -0.7932 -1.8442
v  2.0222 -0.7932 -1.5967
v  2.0222 -0.7932 -1.6462
v  2.0627 -0.7593 -1.6462
v  2.0627 -0.7593 -1.5967
v  2.0222 -0.7932 -1.6957
v  2.0627 -0.7593 -1.6957
v  1.8848 -0.7937 -1.9927
v  1.8848 -0.7937 -1.9432
v  1.8282 -0.7263 -1.9432
v  1.8282 -0.7263 -1.9927
v  1.8848 -0.7937 -1.8937
v  1.8282 -0.7263 -1.8937
v  1.8848 -0.7937 -1.8442
v  1.8282 -0.7263 -1.8442
v  1.8525 -0.5910 -1.9927
v  1.8525 -0.5910 -1.9432
v  1.8930 -0.5571 -1.9432
v  1.8930 -0.5571 -1.9927
v  1.8525 -0.5910 -1.8937
v  1.8930 -0.5571 -1.8937
v  1.8525 -0.5910 -1.8442
v  1.8930 -0.5571 -1.8442
v  2.0304 -0.5566 -1.9927
v  2.0304 -0.5566 -1.9432
v  2.0870 -0.6240 -1.9432
v  2.0870 -0.6240 -1.9927
v  2.0304 -0.5566 -1.8937
v  2.0870 -0.6240 -1.8937
v  2.0304 -0.5566 -1.8442
v  2.0870 -0.6240 -1.8442
v  2.0870 -0.6240 -1.5967
v  2.0870 -0.6240 -1.6462
v  2.0304 -0.5566 -1.6462
v  2.0304 -0.5566 -1.5967
v  2.0870 -0.6240 -1.6957
v  2.0304 -0.5566 -1.6957
v  1.9900 -0.5905 -1.5967
v  2.0466 -0.6579 -1.5967
v  1.9495 -0.6245 -1.5967
v  2.0061 -0.6919 -1.5967
v  1.8686 -0.6924 -1.9927
v  1.9252 -0.7598 -1.9927
v  2.0466 -0.6579 -1.9927
v  1.9900 -0.5905 -1.9927
v  2.1436 -0.6914 -1.7947
v  2.1436 -0.6914 -1.7452
v  2.1031 -0.7254 -1.7452
v  2.1031 -0.7254 -1.7947
v  1.9413 -0.8611 -1.7452
v  1.9413 -0.8611 -1.7947
v  1.9818 -0.8272 -1.7947
v  1.9818 -0.8272 -1.7452
v  1.8121 -0.6249 -1.7947
v  1.8048 -0.6311 -1.7947
v  1.8121 -0.6249 -1.7829
v  1.8354 -0.6053 -1.7452
v  1.9739 -0.4892 -1.7452
v  1.9739 -0.4892 -1.7947
v  1.9334 -0.5231 -1.7947
v  1.9334 -0.5231 -1.7452
v  2.1436 -0.6914 -1.9927
v  2.1436 -0.6914 -1.9432
v  2.1031 -0.7254 -1.9432
v  2.1031 -0.7254 -1.9927
v  1.9413 -0.8611 -1.9432
v  1.9413 -0.8611 -1.9927
v  1.9818 -0.8272 -1.9927
v  1.9818 -0.8272 -1.9432
v  2.1436 -0.6914 -1.8937
v  2.1031 -0.7254 -1.8937
v  1.9413 -0.8611 -1.8937
v  1.9818 -0.8272 -1.8937
v  2.1436 -0.6914 -1.8442
v  2.1031 -0.7254 -1.8442
v  1.9413 -0.8611 -1.8442
v  1.9818 -0.8272 -1.8442
v  1.9804 -0.8284 -1.5967
v  1.9497 -0.8541 -1.6462
v  1.9818 -0.8272 -1.6462
v  1.9818 -0.8272 -1.5967
v  2.1436 -0.6914 -1.6462
v  2.1436 -0.6914 -1.5967
v  2.1031 -0.7254 -1.5967
v  2.1031 -0.7254 -1.6462
v  1.9413 -0.8611 -1.6597
v  1.9413 -0.8611 -1.6957
v  1.9818 -0.8272 -1.6957
v  2.1436 -0.6914 -1.6957
v  2.1031 -0.7254 -1.6957
v  1.7716 -0.6589 -1.9927
v  1.7716 -0.6589 -1.9432
v  1.8121 -0.6249 -1.9432
v  1.8121 -0.6249 -1.9927
v  1.9739 -0.4892 -1.9432
v  1.9739 -0.4892 -1.9927
v  1.9334 -0.5231 -1.9927
v  1.9334 -0.5231 -1.9432
v  1.7716 -0.6589 -1.8937
v  1.8121 -0.6249 -1.8937
v  1.9739 -0.4892 -1.8937
v  1.9334 -0.5231 -1.8937
v  1.7716 -0.6589 -1.8482
v  1.7741 -0.6568 -1.8442
v  1.8121 -0.6249 -1.8442
v  1.9739 -0.4892 -1.8442
v  1.9334 -0.5231 -1.8442
v  1.9739 -0.4892 -1.5967
v  1.9739 -0.4892 -1.6462
v  1.9334 -0.5231 -1.6462
v  1.9334 -0.5231 -1.5967
v  1.9739 -0.4892 -1.6957
v  1.9334 -0.5231 -1.6957
v  1.8930 -0.5571 -1.6957
v  1.8525 -0.5910 -1.7176
v  1.9657 -0.7258 -1.5967
v  1.9430 -0.6167 -1.5967
v  1.9451 -0.6282 -1.5967
v  1.7752 -0.6632 -1.8442
v  1.8198 -0.7163 -1.7947
v  1.9089 -0.8225 -1.6957
v  1.8848 -0.7937 -1.7225
v  1.9274 -0.5282 -1.5967
v  1.9614 -0.7207 -1.5967
v  1.8930 -0.5571 -1.6523
v  1.8661 -0.5796 -1.6957
v  1.9627 -0.7283 -1.5967
v  1.8968 -0.5539 -1.6462
v  1.9797 -0.8247 -1.5967
# 157 vertices

vn -0.0000 0.0000 -1.0000
vn 0.6428 -0.7660 -0.0000
vn -0.7660 -0.6428 -0.0000
vn -0.6428 0.7660 0.0000
vn 0.7660 0.6428 0.0000
vn 0.0000 -0.0000 1.0000
vn -0.6428 0.7660 -0.0000
# 7 vertex normals

vt 0.2539 0.1132 0.0000
vt 0.2539 0.1621 0.0000
vt 0.2131 0.1621 0.0000
vt 0.2131 0.1132 0.0000
vt 0.8424 0.2606 0.0000
vt 0.8424 0.2084 0.0000
vt 0.8808 0.2099 0.0000
vt 0.8809 0.2614 0.0000
vt 0.7290 0.2596 0.0000
vt 0.7289 0.2069 0.0000
vt 0.7156 0.2076 0.0000
vt 0.6920 0.2507 0.0000
vt 0.6921 0.2605 0.0000
vt 0.8428 0.2602 0.0000
vt 0.8427 0.2081 0.0000
vt 0.8812 0.2096 0.0000
vt 0.8812 0.2611 0.0000
vt 0.6920 0.2606 0.0000
vt 0.6920 0.2088 0.0000
vt 0.7289 0.2070 0.0000
vt 0.7289 0.2597 0.0000
vt 0.8425 0.4692 0.0000
vt 0.8425 0.4170 0.0000
vt 0.8809 0.4158 0.0000
vt 0.8809 0.4673 0.0000
vt 0.8425 0.3649 0.0000
vt 0.8809 0.3643 0.0000
vt 0.8424 0.3127 0.0000
vt 0.8809 0.3129 0.0000
vt 0.8808 0.0554 0.0000
vt 0.8808 0.1069 0.0000
vt 0.8424 0.1041 0.0000
vt 0.8424 0.0519 0.0000
vt 0.8808 0.1584 0.0000
vt 0.8424 0.1562 0.0000
vt 0.7290 0.4700 0.0000
vt 0.7290 0.4174 0.0000
vt 0.6921 0.4158 0.0000
vt 0.6921 0.4676 0.0000
vt 0.7290 0.3648 0.0000
vt 0.6921 0.3640 0.0000
vt 0.7290 0.3122 0.0000
vt 0.6921 0.3123 0.0000
vt 0.8428 0.4689 0.0000
vt 0.8428 0.4167 0.0000
vt 0.8812 0.4155 0.0000
vt 0.8812 0.4670 0.0000
vt 0.8428 0.3645 0.0000
vt 0.8812 0.3640 0.0000
vt 0.8428 0.3124 0.0000
vt 0.8812 0.3125 0.0000
vt 0.6920 0.4677 0.0000
vt 0.6920 0.4159 0.0000
vt 0.7289 0.4175 0.0000
vt 0.7289 0.4701 0.0000
vt 0.6920 0.3641 0.0000
vt 0.7289 0.3649 0.0000
vt 0.6920 0.3124 0.0000
vt 0.7289 0.3123 0.0000
vt 0.7289 0.0492 0.0000
vt 0.7289 0.1018 0.0000
vt 0.6920 0.1052 0.0000
vt 0.6920 0.0534 0.0000
vt 0.7289 0.1544 0.0000
vt 0.6920 0.1570 0.0000
vt 0.0714 0.2594 0.0000
vt 0.0714 0.2105 0.0000
vt 0.1121 0.2105 0.0000
vt 0.1121 0.2594 0.0000
vt 0.0714 0.1615 0.0000
vt 0.1121 0.1615 0.0000
vt 0.2539 0.0153 0.0000
vt 0.2539 0.0643 0.0000
vt 0.2131 0.0643 0.0000
vt 0.2131 0.0153 0.0000
vt 0.2131 0.2600 0.0000
vt 0.2131 0.2111 0.0000
vt 0.2539 0.2111 0.0000
vt 0.2539 0.2600 0.0000
vt 0.7656 0.2589 0.0000
vt 0.7656 0.2054 0.0000
vt 0.8040 0.2069 0.0000
vt 0.8040 0.2597 0.0000
vt 0.9577 0.2129 0.0000
vt 0.9577 0.2630 0.0000
vt 0.9193 0.2622 0.0000
vt 0.9193 0.2114 0.0000
vt 0.8043 0.2594 0.0000
vt 0.7974 0.2593 0.0000
vt 0.8043 0.2468 0.0000
vt 0.8265 0.2074 0.0000
vt 0.9580 0.2125 0.0000
vt 0.9580 0.2627 0.0000
vt 0.9196 0.2619 0.0000
vt 0.9196 0.2111 0.0000
vt 0.7657 0.4729 0.0000
vt 0.7657 0.4194 0.0000
vt 0.8041 0.4182 0.0000
vt 0.8041 0.4710 0.0000
vt 0.9577 0.4134 0.0000
vt 0.9577 0.4636 0.0000
vt 0.9193 0.4655 0.0000
vt 0.9193 0.4146 0.0000
vt 0.7656 0.3659 0.0000
vt 0.8041 0.3654 0.0000
vt 0.9577 0.3633 0.0000
vt 0.9193 0.3638 0.0000
vt 0.7656 0.3124 0.0000
vt 0.8040 0.3126 0.0000
vt 0.9577 0.3132 0.0000
vt 0.9193 0.3130 0.0000
vt 0.9206 0.0591 0.0000
vt 0.9498 0.1120 0.0000
vt 0.9193 0.1097 0.0000
vt 0.9193 0.0589 0.0000
vt 0.7655 0.0984 0.0000
vt 0.7655 0.0449 0.0000
vt 0.8039 0.0484 0.0000
vt 0.8039 0.1013 0.0000
vt 0.9577 0.1263 0.0000
vt 0.9577 0.1627 0.0000
vt 0.9193 0.1606 0.0000
vt 0.7655 0.1519 0.0000
vt 0.8040 0.1541 0.0000
vt 0.7660 0.4726 0.0000
vt 0.7660 0.4191 0.0000
vt 0.8044 0.4179 0.0000
vt 0.8044 0.4707 0.0000
vt 0.9580 0.4131 0.0000
vt 0.9580 0.4633 0.0000
vt 0.9196 0.4651 0.0000
vt 0.9196 0.4143 0.0000
vt 0.7660 0.3656 0.0000
vt 0.8044 0.3651 0.0000
vt 0.9580 0.3630 0.0000
vt 0.9196 0.3635 0.0000
vt 0.7659 0.3164 0.0000
vt 0.7683 0.3121 0.0000
vt 0.8044 0.3122 0.0000
vt 0.9580 0.3128 0.0000
vt 0.9196 0.3127 0.0000
vt 0.9580 0.0621 0.0000
vt 0.9580 0.1123 0.0000
vt 0.9196 0.1094 0.0000
vt 0.9196 0.0586 0.0000
vt 0.9580 0.1624 0.0000
vt 0.9196 0.1602 0.0000
vt 0.8812 0.1581 0.0000
vt 0.8427 0.1790 0.0000
vt 0.1529 0.1126 0.0000
vt 0.1529 0.1615 0.0000
vt 0.1121 0.1126 0.0000
vt 0.0667 0.1615 0.0000
vt 0.0714 0.1561 0.0000
vt 0.2946 0.1132 0.0000
vt 0.2946 0.1621 0.0000
vt 0.1723 0.1621 0.0000
vt 0.1723 0.1132 0.0000
vt 0.7659 0.2586 0.0000
vt 0.7659 0.2052 0.0000
vt 0.6551 0.2615 0.0000
vt 0.6551 0.2105 0.0000
vt 0.7658 0.2053 0.0000
vt 0.7658 0.2587 0.0000
vt 0.7659 0.4725 0.0000
vt 0.7659 0.4190 0.0000
vt 0.6552 0.4142 0.0000
vt 0.6552 0.4652 0.0000
vt 0.7659 0.3656 0.0000
vt 0.6551 0.3633 0.0000
vt 0.7659 0.3121 0.0000
vt 0.6575 0.3123 0.0000
vt 0.6551 0.3165 0.0000
vt 0.6866 0.2606 0.0000
vt 0.7658 0.1517 0.0000
vt 0.7447 0.1532 0.0000
vt 0.7289 0.1829 0.0000
vt 0.6551 0.4653 0.0000
vt 0.6551 0.4143 0.0000
vt 0.7659 0.4191 0.0000
vt 0.7659 0.4726 0.0000
vt 0.6551 0.3634 0.0000
vt 0.7658 0.3656 0.0000
vt 0.6551 0.3124 0.0000
vt 0.7658 0.3122 0.0000
vt 0.7658 0.0449 0.0000
vt 0.7658 0.0984 0.0000
vt 0.6551 0.1086 0.0000
vt 0.6551 0.0577 0.0000
vt 0.7658 0.1518 0.0000
vt 0.6551 0.1596 0.0000
vt 0.0306 0.2594 0.0000
vt 0.0306 0.2105 0.0000
vt 0.1529 0.2105 0.0000
vt 0.1529 0.2594 0.0000
vt 0.0306 0.2032 0.0000
vt 0.2946 0.0153 0.0000
vt 0.2946 0.0643 0.0000
vt 0.1723 0.0643 0.0000
vt 0.1723 0.0153 0.0000
vt 0.1723 0.2600 0.0000
vt 0.1723 0.2111 0.0000
vt 0.2946 0.2111 0.0000
vt 0.2946 0.2600 0.0000
vt 0.1090 0.1126 0.0000
vt 0.8812 0.1129 0.0000
vt 0.8556 0.1566 0.0000
vt 0.1121 0.1090 0.0000
vt 0.9139 0.0581 0.0000
vt 0.8848 0.1069 0.0000
vt 0.7658 0.1129 0.0000
vt 0.1529 0.0619 0.0000
vt 0.1529 0.0637 0.0000
vt 0.1514 0.0637 0.0000
# 214 texture coords

o Build_B_Bot
g Build_B_Bot
usemtl Builsings
s 4
f 1/1/1 2/2/1 3/3/1 
f 3/3/1 4/4/1 1/1/1 
s 8
f 5/5/2 6/6/2 7/7/2 
f 7/7/2 8/8/2 5/5/2 
s 16
f 9/9/3 10/10/3 11/11/3 
f 9/9/3 11/11/3 12/12/3 
f 13/13/3 9/9/3 12/12/3 
s 32
f 14/14/4 15/15/4 16/16/4 
f 16/16/4 17/17/4 14/14/4 
s 64
f 18/18/5 19/19/5 20/20/5 
f 20/20/5 21/21/5 18/18/5 
s 8
f 22/22/2 23/23/2 24/24/2 
f 24/24/2 25/25/2 22/22/2 
f 23/23/2 26/26/2 27/27/2 
f 27/27/2 24/24/2 23/23/2 
f 26/26/2 28/28/2 29/29/2 
f 29/29/2 27/27/2 26/26/2 
f 28/28/2 5/5/2 8/8/2 
f 8/8/2 29/29/2 28/28/2 
f 30/30/2 31/31/2 32/32/2 
f 32/32/2 33/33/2 30/30/2 
f 31/31/2 34/34/2 35/35/2 
f 35/35/2 32/32/2 31/31/2 
f 34/34/2 7/7/2 6/6/2 
f 6/6/2 35/35/2 34/34/2 
s 16
f 36/36/3 37/37/3 38/38/3 
f 38/38/3 39/39/3 36/36/3 
f 37/37/3 40/40/3 41/41/3 
f 41/41/3 38/38/3 37/37/3 
f 40/40/3 42/42/3 43/43/3 
f 43/43/3 41/41/3 40/40/3 
f 42/42/3 9/9/3 13/13/3 
f 13/13/3 43/43/3 42/42/3 
s 32
f 44/44/4 45/45/4 46/46/4 
f 46/46/4 47/47/4 44/44/4 
f 45/45/4 48/48/4 49/49/4 
f 49/49/4 46/46/4 45/45/4 
f 48/48/4 50/50/4 51/51/4 
f 51/51/4 49/49/4 48/48/4 
f 50/50/4 14/14/4 17/17/4 
f 17/17/4 51/51/4 50/50/4 
s 64
f 52/52/5 53/53/5 54/54/5 
f 54/54/5 55/55/5 52/52/5 
f 53/53/5 56/56/5 57/57/5 
f 57/57/5 54/54/5 53/53/5 
f 56/56/5 58/58/5 59/59/5 
f 59/59/5 57/57/5 56/56/5 
f 58/58/5 18/18/5 21/21/5 
f 21/21/5 59/59/5 58/58/5 
f 60/60/5 61/61/5 62/62/5 
f 62/62/5 63/63/5 60/60/5 
f 61/61/5 64/64/5 65/65/5 
f 65/65/5 62/62/5 61/61/5 
f 64/64/5 20/20/5 19/19/5 
f 19/19/5 65/65/5 64/64/5 
s 2
f 63/66/6 66/67/6 67/68/6 
f 67/68/6 60/69/6 63/66/6 
f 66/67/6 68/70/6 69/71/6 
f 69/71/6 67/68/6 66/67/6 
s 4
f 39/72/1 70/73/1 71/74/1 
f 71/74/1 36/75/1 39/72/1 
f 70/73/1 1/1/1 4/4/1 
f 4/4/1 71/74/1 70/73/1 
f 55/76/1 72/77/1 73/78/1 
f 73/78/1 52/79/1 55/76/1 
f 72/77/1 3/3/1 2/2/1 
f 2/2/1 73/78/1 72/77/1 
s 8
f 74/80/2 75/81/2 76/82/2 
f 76/82/2 77/83/2 74/80/2 
f 77/83/2 76/82/2 6/6/2 
f 6/6/2 5/5/2 77/83/2 
f 78/84/2 79/85/2 80/86/2 
f 80/86/2 81/87/2 78/84/2 
f 81/87/2 80/86/2 8/8/2 
f 8/8/2 7/7/2 81/87/2 
s 32
f 82/88/4 83/89/4 84/90/4 
f 82/88/4 84/90/4 85/91/4 
f 82/88/4 85/91/4 15/15/4 
f 14/14/4 82/88/4 15/15/4 
f 86/92/4 87/93/4 88/94/4 
f 88/94/4 89/95/4 86/92/4 
f 89/95/4 88/94/4 17/17/4 
f 17/17/4 16/16/4 89/95/4 
s 8
f 90/96/2 91/97/2 92/98/2 
f 92/98/2 93/99/2 90/96/2 
f 93/99/2 92/98/2 23/23/2 
f 23/23/2 22/22/2 93/99/2 
f 94/100/2 95/101/2 96/102/2 
f 96/102/2 97/103/2 94/100/2 
f 97/103/2 96/102/2 25/25/2 
f 25/25/2 24/24/2 97/103/2 
f 91/97/2 98/104/2 99/105/2 
f 99/105/2 92/98/2 91/97/2 
f 92/98/2 99/105/2 26/26/2 
f 26/26/2 23/23/2 92/98/2 
f 100/106/2 94/100/2 97/103/2 
f 97/103/2 101/107/2 100/106/2 
f 101/107/2 97/103/2 24/24/2 
f 24/24/2 27/27/2 101/107/2 
f 98/104/2 102/108/2 103/109/2 
f 103/109/2 99/105/2 98/104/2 
f 99/105/2 103/109/2 28/28/2 
f 28/28/2 26/26/2 99/105/2 
f 104/110/2 100/106/2 101/107/2 
f 101/107/2 105/111/2 104/110/2 
f 105/111/2 101/107/2 27/27/2 
f 27/27/2 29/29/2 105/111/2 
f 102/108/2 74/80/2 77/83/2 
f 77/83/2 103/109/2 102/108/2 
f 103/109/2 77/83/2 5/5/2 
f 5/5/2 28/28/2 103/109/2 
f 79/85/2 104/110/2 105/111/2 
f 105/111/2 80/86/2 79/85/2 
f 80/86/2 105/111/2 29/29/2 
f 29/29/2 8/8/2 80/86/2 
f 106/112/2 107/113/2 108/114/2 
f 108/114/2 109/115/2 106/112/2 
f 109/115/2 108/114/2 31/31/2 
f 31/31/2 30/30/2 109/115/2 
f 110/116/2 111/117/2 112/118/2 
f 112/118/2 113/119/2 110/116/2 
f 113/119/2 112/118/2 33/33/2 
f 33/33/2 32/32/2 113/119/2 
f 107/113/2 114/120/2 115/121/2 
f 107/113/2 115/121/2 116/122/2 
f 108/114/2 107/113/2 116/122/2 
f 108/114/2 116/122/2 34/34/2 
f 34/34/2 31/31/2 108/114/2 
f 117/123/2 110/116/2 113/119/2 
f 113/119/2 118/124/2 117/123/2 
f 118/124/2 113/119/2 32/32/2 
f 32/32/2 35/35/2 118/124/2 
f 115/121/2 78/84/2 81/87/2 
f 81/87/2 116/122/2 115/121/2 
f 116/122/2 81/87/2 7/7/2 
f 7/7/2 34/34/2 116/122/2 
f 75/81/2 117/123/2 118/124/2 
f 118/124/2 76/82/2 75/81/2 
f 76/82/2 118/124/2 35/35/2 
f 35/35/2 6/6/2 76/82/2 
s 32
f 119/125/4 120/126/4 121/127/4 
f 121/127/4 122/128/4 119/125/4 
f 122/128/4 121/127/4 45/45/4 
f 45/45/4 44/44/4 122/128/4 
f 123/129/4 124/130/4 125/131/4 
f 125/131/4 126/132/4 123/129/4 
f 126/132/4 125/131/4 47/47/4 
f 47/47/4 46/46/4 126/132/4 
f 120/126/4 127/133/4 128/134/4 
f 128/134/4 121/127/4 120/126/4 
f 121/127/4 128/134/4 48/48/4 
f 48/48/4 45/45/4 121/127/4 
f 129/135/4 123/129/4 126/132/4 
f 126/132/4 130/136/4 129/135/4 
f 130/136/4 126/132/4 46/46/4 
f 46/46/4 49/49/4 130/136/4 
f 131/137/4 132/138/4 133/139/4 
f 127/133/4 131/137/4 133/139/4 
f 128/134/4 127/133/4 133/139/4 
f 128/134/4 133/139/4 50/50/4 
f 50/50/4 48/48/4 128/134/4 
f 134/140/4 129/135/4 130/136/4 
f 130/136/4 135/141/4 134/140/4 
f 135/141/4 130/136/4 49/49/4 
f 49/49/4 51/51/4 135/141/4 
f 133/139/4 132/138/4 83/89/4 
f 83/89/4 82/88/4 133/139/4 
f 133/139/4 82/88/4 14/14/4 
f 14/14/4 50/50/4 133/139/4 
f 87/93/4 134/140/4 135/141/4 
f 135/141/4 88/94/4 87/93/4 
f 88/94/4 135/141/4 51/51/4 
f 51/51/4 17/17/4 88/94/4 
f 136/142/4 137/143/4 138/144/4 
f 138/144/4 139/145/4 136/142/4 
f 137/143/4 140/146/4 141/147/4 
f 141/147/4 138/144/4 137/143/4 
f 140/146/4 86/92/4 89/95/4 
f 89/95/4 141/147/4 140/146/4 
f 141/147/4 89/95/4 16/16/4 
f 16/16/4 142/148/4 141/147/4 
f 15/15/4 85/91/4 143/149/4 
s 2
f 30/150/6 33/151/6 69/71/6 
f 69/71/6 144/152/6 30/150/6 
f 68/70/6 145/153/6 146/154/6 
s 4
f 44/155/1 47/156/1 2/2/1 
f 2/2/1 1/1/1 44/155/1 
f 22/157/1 25/158/1 4/4/1 
f 4/4/1 3/3/1 22/157/1 
s 16
f 79/159/3 78/160/3 10/10/3 
f 10/10/3 9/9/3 79/159/3 
s 64
f 87/161/5 86/162/5 19/19/5 
f 19/19/5 18/18/5 87/161/5 
f 75/163/5 74/164/5 21/21/5 
f 21/21/5 20/20/5 75/163/5 
s 16
f 95/165/3 94/166/3 37/37/3 
f 37/37/3 36/36/3 95/165/3 
f 120/167/3 119/168/3 39/39/3 
f 39/39/3 38/38/3 120/167/3 
f 94/166/3 100/169/3 40/40/3 
f 40/40/3 37/37/3 94/166/3 
f 127/170/3 120/167/3 38/38/3 
f 38/38/3 41/41/3 127/170/3 
f 100/169/3 104/171/3 42/42/3 
f 42/42/3 40/40/3 100/169/3 
f 147/172/3 131/173/3 127/170/3 
f 147/172/3 127/170/3 41/41/3 
f 43/43/3 147/172/3 41/41/3 
f 104/171/3 79/159/3 9/9/3 
f 9/9/3 42/42/3 104/171/3 
f 148/174/3 147/172/3 43/43/3 
f 43/43/3 13/13/3 148/174/3 
f 78/160/3 115/175/3 149/176/3 
f 78/160/3 149/176/3 150/177/3 
f 10/10/3 78/160/3 150/177/3 
s 64
f 124/178/5 123/179/5 53/53/5 
f 53/53/5 52/52/5 124/178/5 
f 91/180/5 90/181/5 55/55/5 
f 55/55/5 54/54/5 91/180/5 
f 123/179/5 129/182/5 56/56/5 
f 56/56/5 53/53/5 123/179/5 
f 98/183/5 91/180/5 54/54/5 
f 54/54/5 57/57/5 98/183/5 
f 129/182/5 134/184/5 58/58/5 
f 58/58/5 56/56/5 129/182/5 
f 102/185/5 98/183/5 57/57/5 
f 57/57/5 59/59/5 102/185/5 
f 134/184/5 87/161/5 18/18/5 
f 18/18/5 58/58/5 134/184/5 
f 74/164/5 102/185/5 59/59/5 
f 59/59/5 21/21/5 74/164/5 
f 111/186/5 110/187/5 61/61/5 
f 61/61/5 60/60/5 111/186/5 
f 137/188/5 136/189/5 63/63/5 
f 63/63/5 62/62/5 137/188/5 
f 110/187/5 117/190/5 64/64/5 
f 64/64/5 61/61/5 110/187/5 
f 140/191/5 137/188/5 62/62/5 
f 62/62/5 65/65/5 140/191/5 
f 117/190/5 75/163/5 20/20/5 
f 20/20/5 64/64/5 117/190/5 
f 86/162/5 140/191/5 65/65/5 
f 65/65/5 19/19/5 86/162/5 
s 2
f 136/192/6 139/193/6 66/67/6 
f 66/67/6 63/66/6 136/192/6 
f 112/194/6 111/195/6 60/69/6 
f 60/69/6 67/68/6 112/194/6 
f 151/196/6 145/153/6 68/70/6 
f 139/193/6 151/196/6 68/70/6 
f 66/67/6 139/193/6 68/70/6 
f 33/151/6 112/194/6 67/68/6 
f 67/68/6 69/71/6 33/151/6 
s 4
f 119/197/1 122/198/1 70/73/1 
f 70/73/1 39/72/1 119/197/1 
f 96/199/1 95/200/1 36/75/1 
f 36/75/1 71/74/1 96/199/1 
f 122/198/1 44/155/1 1/1/1 
f 1/1/1 70/73/1 122/198/1 
f 25/158/1 96/199/1 71/74/1 
f 71/74/1 4/4/1 25/158/1 
f 90/201/1 93/202/1 72/77/1 
f 72/77/1 55/76/1 90/201/1 
f 125/203/1 124/204/1 52/79/1 
f 52/79/1 73/78/1 125/203/1 
f 93/202/1 22/157/1 3/3/1 
f 3/3/1 72/77/1 93/202/1 
f 47/156/1 125/203/1 73/78/1 
f 73/78/1 2/2/1 47/156/1 
s 2
f 144/152/6 69/71/6 68/70/6 
f 152/205/6 144/152/6 68/70/6 
f 152/205/6 68/70/6 146/154/6 
s 16
f 11/11/3 10/10/3 150/177/3 
s 32
f 153/206/7 142/148/4 154/207/4 
f 142/148/4 16/16/4 15/15/4 
f 154/207/4 142/148/4 15/15/4 
f 154/207/4 15/15/4 143/149/4 
s 2
f 155/208/6 144/152/6 152/205/6 
s 32
f 151/209/4 139/145/4 138/144/4 
f 138/144/4 156/210/4 151/209/4 
f 138/144/4 141/147/4 142/148/4 
f 156/210/4 138/144/4 142/148/4 
f 156/210/4 142/148/4 153/206/7 
s 16
f 148/174/3 13/13/3 12/12/3 
f 149/176/3 115/175/3 114/211/3 
s 2
f 106/212/6 109/213/6 157/214/6 
f 109/213/6 30/150/6 144/152/6 
f 157/214/6 109/213/6 144/152/6 
f 157/214/6 144/152/6 155/208/6 
# 288 faces

