# 3ds Max Wavefront OBJ Exporter v0.97b - (c)2007 guruware
# ì¬‚µ‚½ƒtƒ@ƒCƒ‹ : 26.12.2019 14:56:05

mtllib Build_B_Top.mtl

#
# object Build_B_Top
#

v  1.9657 -0.7258 -2.1410
v  2.0061 -0.6919 -2.1410
v  1.9495 -0.6245 -2.1410
v  1.9091 -0.6584 -2.1410
v  1.9091 -0.6584 -2.5370
v  1.9495 -0.6245 -2.5370
v  2.0061 -0.6919 -2.5370
v  1.9657 -0.7258 -2.5370
v  2.0627 -0.7593 -2.3390
v  2.0627 -0.7593 -2.2895
v  2.0222 -0.7932 -2.2895
v  2.0222 -0.7932 -2.3390
v  1.8848 -0.7937 -2.3390
v  1.8848 -0.7937 -2.2895
v  1.8282 -0.7263 -2.2895
v  1.8282 -0.7263 -2.3390
v  1.8525 -0.5910 -2.3390
v  1.8525 -0.5910 -2.2895
v  1.8930 -0.5571 -2.2895
v  1.8930 -0.5571 -2.3390
v  2.0304 -0.5566 -2.3390
v  2.0304 -0.5566 -2.2895
v  2.0870 -0.6240 -2.2895
v  2.0870 -0.6240 -2.3390
v  2.0627 -0.7593 -2.5370
v  2.0627 -0.7593 -2.4875
v  2.0222 -0.7932 -2.4875
v  2.0222 -0.7932 -2.5370
v  2.0627 -0.7593 -2.4380
v  2.0222 -0.7932 -2.4380
v  2.0627 -0.7593 -2.3885
v  2.0222 -0.7932 -2.3885
v  2.0222 -0.7932 -2.1410
v  2.0222 -0.7932 -2.1905
v  2.0627 -0.7593 -2.1905
v  2.0627 -0.7593 -2.1410
v  2.0222 -0.7932 -2.2400
v  2.0627 -0.7593 -2.2400
v  1.8848 -0.7937 -2.5370
v  1.8848 -0.7937 -2.4875
v  1.8282 -0.7263 -2.4875
v  1.8282 -0.7263 -2.5370
v  1.8848 -0.7937 -2.4380
v  1.8282 -0.7263 -2.4380
v  1.8848 -0.7937 -2.3885
v  1.8282 -0.7263 -2.3885
v  1.8282 -0.7263 -2.1410
v  1.8282 -0.7263 -2.1905
v  1.8848 -0.7937 -2.1905
v  1.8848 -0.7937 -2.1410
v  1.8282 -0.7263 -2.2400
v  1.8848 -0.7937 -2.2400
v  1.8525 -0.5910 -2.5370
v  1.8525 -0.5910 -2.4875
v  1.8930 -0.5571 -2.4875
v  1.8930 -0.5571 -2.5370
v  1.8525 -0.5910 -2.4380
v  1.8930 -0.5571 -2.4380
v  1.8525 -0.5910 -2.3885
v  1.8930 -0.5571 -2.3885
v  1.8930 -0.5571 -2.1410
v  1.8930 -0.5571 -2.1905
v  1.8525 -0.5910 -2.1905
v  1.8525 -0.5910 -2.1410
v  1.8930 -0.5571 -2.2400
v  1.8525 -0.5910 -2.2400
v  2.0304 -0.5566 -2.5370
v  2.0304 -0.5566 -2.4875
v  2.0870 -0.6240 -2.4875
v  2.0870 -0.6240 -2.5370
v  2.0304 -0.5566 -2.4380
v  2.0870 -0.6240 -2.4380
v  2.0304 -0.5566 -2.3885
v  2.0870 -0.6240 -2.3885
v  2.0870 -0.6240 -2.1410
v  2.0870 -0.6240 -2.1905
v  2.0304 -0.5566 -2.1905
v  2.0304 -0.5566 -2.1410
v  2.0870 -0.6240 -2.2400
v  2.0304 -0.5566 -2.2400
v  1.9252 -0.7598 -2.1410
v  1.8686 -0.6924 -2.1410
v  1.9900 -0.5905 -2.1410
v  2.0466 -0.6579 -2.1410
v  1.8686 -0.6924 -2.5370
v  1.9252 -0.7598 -2.5370
v  2.0466 -0.6579 -2.5370
v  1.9900 -0.5905 -2.5370
v  2.1436 -0.6914 -2.3390
v  2.1436 -0.6914 -2.2895
v  2.1031 -0.7254 -2.2895
v  2.1031 -0.7254 -2.3390
v  1.9413 -0.8611 -2.2895
v  1.9413 -0.8611 -2.3390
v  1.9818 -0.8272 -2.3390
v  1.9818 -0.8272 -2.2895
v  1.7716 -0.6589 -2.3390
v  1.7716 -0.6589 -2.2895
v  1.8121 -0.6249 -2.2895
v  1.8121 -0.6249 -2.3390
v  1.9739 -0.4892 -2.2895
v  1.9739 -0.4892 -2.3390
v  1.9334 -0.5231 -2.3390
v  1.9334 -0.5231 -2.2895
v  2.1436 -0.6914 -2.5370
v  2.1436 -0.6914 -2.4875
v  2.1031 -0.7254 -2.4875
v  2.1031 -0.7254 -2.5370
v  1.9413 -0.8611 -2.4875
v  1.9413 -0.8611 -2.5370
v  1.9818 -0.8272 -2.5370
v  1.9818 -0.8272 -2.4875
v  2.1436 -0.6914 -2.4380
v  2.1031 -0.7254 -2.4380
v  1.9413 -0.8611 -2.4380
v  1.9818 -0.8272 -2.4380
v  2.1436 -0.6914 -2.3885
v  2.1031 -0.7254 -2.3885
v  1.9413 -0.8611 -2.3885
v  1.9818 -0.8272 -2.3885
v  1.9413 -0.8611 -2.1410
v  1.9413 -0.8611 -2.1905
v  1.9818 -0.8272 -2.1905
v  1.9818 -0.8272 -2.1410
v  2.1436 -0.6914 -2.1905
v  2.1436 -0.6914 -2.1410
v  2.1031 -0.7254 -2.1410
v  2.1031 -0.7254 -2.1905
v  1.9413 -0.8611 -2.2400
v  1.9818 -0.8272 -2.2400
v  2.1436 -0.6914 -2.2400
v  2.1031 -0.7254 -2.2400
v  1.7716 -0.6589 -2.5370
v  1.7716 -0.6589 -2.4875
v  1.8121 -0.6249 -2.4875
v  1.8121 -0.6249 -2.5370
v  1.9739 -0.4892 -2.4875
v  1.9739 -0.4892 -2.5370
v  1.9334 -0.5231 -2.5370
v  1.9334 -0.5231 -2.4875
v  1.7716 -0.6589 -2.4380
v  1.8121 -0.6249 -2.4380
v  1.9739 -0.4892 -2.4380
v  1.9334 -0.5231 -2.4380
v  1.7716 -0.6589 -2.3885
v  1.8121 -0.6249 -2.3885
v  1.9739 -0.4892 -2.3885
v  1.9334 -0.5231 -2.3885
v  1.9739 -0.4892 -2.1410
v  1.9739 -0.4892 -2.1905
v  1.9334 -0.5231 -2.1905
v  1.9334 -0.5231 -2.1410
v  1.7716 -0.6589 -2.1905
v  1.7716 -0.6589 -2.1410
v  1.8121 -0.6249 -2.1410
v  1.8121 -0.6249 -2.1905
v  1.9739 -0.4892 -2.2400
v  1.9334 -0.5231 -2.2400
v  1.7716 -0.6589 -2.2400
v  1.8121 -0.6249 -2.2400
# 160 vertices

vn 0.0000 -0.0000 1.0000
vn -0.0000 0.0000 -1.0000
vn 0.6428 -0.7660 -0.0000
vn -0.7660 -0.6428 -0.0000
vn -0.6428 0.7660 0.0000
vn 0.7660 0.6428 0.0000
# 6 vertex normals

vt 0.1121 0.1126 0.0000
vt 0.1121 0.1615 0.0000
vt 0.0714 0.1615 0.0000
vt 0.0714 0.1126 0.0000
vt 0.2539 0.1132 0.0000
vt 0.2539 0.1621 0.0000
vt 0.2131 0.1621 0.0000
vt 0.2131 0.1132 0.0000
vt 0.8427 0.7717 0.0000
vt 0.8427 0.7250 0.0000
vt 0.8812 0.7207 0.0000
vt 0.8812 0.7669 0.0000
vt 0.7293 0.7718 0.0000
vt 0.7293 0.7249 0.0000
vt 0.6926 0.7165 0.0000
vt 0.6927 0.7624 0.0000
vt 0.8430 0.7714 0.0000
vt 0.8430 0.7247 0.0000
vt 0.8815 0.7203 0.0000
vt 0.8816 0.7665 0.0000
vt 0.6927 0.7625 0.0000
vt 0.6926 0.7166 0.0000
vt 0.7293 0.7250 0.0000
vt 0.7293 0.7719 0.0000
vt 0.8428 0.9588 0.0000
vt 0.8428 0.9120 0.0000
vt 0.8813 0.9055 0.0000
vt 0.8813 0.9517 0.0000
vt 0.8428 0.8653 0.0000
vt 0.8813 0.8593 0.0000
vt 0.8427 0.8185 0.0000
vt 0.8813 0.8131 0.0000
vt 0.8811 0.5820 0.0000
vt 0.8811 0.6282 0.0000
vt 0.8426 0.6315 0.0000
vt 0.8426 0.5847 0.0000
vt 0.8812 0.6744 0.0000
vt 0.8426 0.6782 0.0000
vt 0.7295 0.9593 0.0000
vt 0.7294 0.9125 0.0000
vt 0.6929 0.9003 0.0000
vt 0.6929 0.9463 0.0000
vt 0.7294 0.8656 0.0000
vt 0.6928 0.8544 0.0000
vt 0.7294 0.8187 0.0000
vt 0.6928 0.8084 0.0000
vt 0.6925 0.5786 0.0000
vt 0.6925 0.6246 0.0000
vt 0.7292 0.6312 0.0000
vt 0.7292 0.5843 0.0000
vt 0.6926 0.6705 0.0000
vt 0.7292 0.6781 0.0000
vt 0.8432 0.9585 0.0000
vt 0.8431 0.9117 0.0000
vt 0.8816 0.9052 0.0000
vt 0.8817 0.9514 0.0000
vt 0.8431 0.8649 0.0000
vt 0.8816 0.8590 0.0000
vt 0.8431 0.8182 0.0000
vt 0.8816 0.8128 0.0000
vt 0.8815 0.5817 0.0000
vt 0.8815 0.6279 0.0000
vt 0.8429 0.6311 0.0000
vt 0.8429 0.5844 0.0000
vt 0.8815 0.6741 0.0000
vt 0.8430 0.6779 0.0000
vt 0.6929 0.9464 0.0000
vt 0.6928 0.9004 0.0000
vt 0.7294 0.9126 0.0000
vt 0.7295 0.9594 0.0000
vt 0.6928 0.8545 0.0000
vt 0.7294 0.8657 0.0000
vt 0.6927 0.8085 0.0000
vt 0.7293 0.8188 0.0000
vt 0.7291 0.5844 0.0000
vt 0.7292 0.6313 0.0000
vt 0.6925 0.6247 0.0000
vt 0.6924 0.5787 0.0000
vt 0.7292 0.6782 0.0000
vt 0.6926 0.6706 0.0000
vt 0.1121 0.0147 0.0000
vt 0.1121 0.0637 0.0000
vt 0.0714 0.0637 0.0000
vt 0.0714 0.0147 0.0000
vt 0.0714 0.2594 0.0000
vt 0.0714 0.2105 0.0000
vt 0.1121 0.2105 0.0000
vt 0.1121 0.2594 0.0000
vt 0.2539 0.0153 0.0000
vt 0.2539 0.0643 0.0000
vt 0.2131 0.0643 0.0000
vt 0.2131 0.0153 0.0000
vt 0.2131 0.2600 0.0000
vt 0.2131 0.2111 0.0000
vt 0.2539 0.2111 0.0000
vt 0.2539 0.2600 0.0000
vt 0.7657 0.7815 0.0000
vt 0.7656 0.7336 0.0000
vt 0.8042 0.7293 0.0000
vt 0.8042 0.7766 0.0000
vt 0.9582 0.7120 0.0000
vt 0.9583 0.7571 0.0000
vt 0.9197 0.7620 0.0000
vt 0.9197 0.7163 0.0000
vt 0.7660 0.7811 0.0000
vt 0.7660 0.7333 0.0000
vt 0.8045 0.7290 0.0000
vt 0.8045 0.7763 0.0000
vt 0.9586 0.7117 0.0000
vt 0.9586 0.7568 0.0000
vt 0.9201 0.7617 0.0000
vt 0.9200 0.7160 0.0000
vt 0.7659 0.9728 0.0000
vt 0.7658 0.9250 0.0000
vt 0.8043 0.9185 0.0000
vt 0.8044 0.9658 0.0000
vt 0.9583 0.8925 0.0000
vt 0.9583 0.9377 0.0000
vt 0.9198 0.9447 0.0000
vt 0.9198 0.8990 0.0000
vt 0.7658 0.8772 0.0000
vt 0.8043 0.8712 0.0000
vt 0.9583 0.8474 0.0000
vt 0.9198 0.8534 0.0000
vt 0.7657 0.8293 0.0000
vt 0.8042 0.8239 0.0000
vt 0.9583 0.8023 0.0000
vt 0.9198 0.8077 0.0000
vt 0.9582 0.5766 0.0000
vt 0.9582 0.6217 0.0000
vt 0.9197 0.6250 0.0000
vt 0.9197 0.5793 0.0000
vt 0.7656 0.6379 0.0000
vt 0.7655 0.5901 0.0000
vt 0.8040 0.5874 0.0000
vt 0.8041 0.6347 0.0000
vt 0.9582 0.6669 0.0000
vt 0.9197 0.6707 0.0000
vt 0.7656 0.6858 0.0000
vt 0.8041 0.6820 0.0000
vt 0.7662 0.9725 0.0000
vt 0.7661 0.9247 0.0000
vt 0.8046 0.9182 0.0000
vt 0.8047 0.9655 0.0000
vt 0.9586 0.8922 0.0000
vt 0.9586 0.9374 0.0000
vt 0.9201 0.9444 0.0000
vt 0.9201 0.8987 0.0000
vt 0.7661 0.8768 0.0000
vt 0.8046 0.8709 0.0000
vt 0.9586 0.8471 0.0000
vt 0.9201 0.8530 0.0000
vt 0.7661 0.8290 0.0000
vt 0.8046 0.8236 0.0000
vt 0.9586 0.8019 0.0000
vt 0.9201 0.8074 0.0000
vt 0.9585 0.5763 0.0000
vt 0.9585 0.6214 0.0000
vt 0.9200 0.6247 0.0000
vt 0.9200 0.5790 0.0000
vt 0.7659 0.6376 0.0000
vt 0.7658 0.5898 0.0000
vt 0.8044 0.5871 0.0000
vt 0.8044 0.6344 0.0000
vt 0.9586 0.6665 0.0000
vt 0.9200 0.6703 0.0000
vt 0.7659 0.6855 0.0000
vt 0.8045 0.6817 0.0000
vt 0.1529 0.1126 0.0000
vt 0.1529 0.1615 0.0000
vt 0.0306 0.1615 0.0000
vt 0.0306 0.1126 0.0000
vt 0.2946 0.1132 0.0000
vt 0.2946 0.1621 0.0000
vt 0.1723 0.1621 0.0000
vt 0.1723 0.1132 0.0000
vt 0.7660 0.7812 0.0000
vt 0.7659 0.7334 0.0000
vt 0.6560 0.7080 0.0000
vt 0.6561 0.7531 0.0000
vt 0.6560 0.7532 0.0000
vt 0.6560 0.7081 0.0000
vt 0.7659 0.7335 0.0000
vt 0.7659 0.7813 0.0000
vt 0.7660 0.9724 0.0000
vt 0.7660 0.9246 0.0000
vt 0.6563 0.8882 0.0000
vt 0.6564 0.9332 0.0000
vt 0.7660 0.8768 0.0000
vt 0.6562 0.8431 0.0000
vt 0.7660 0.8290 0.0000
vt 0.6561 0.7981 0.0000
vt 0.6558 0.5729 0.0000
vt 0.6558 0.6180 0.0000
vt 0.7659 0.6378 0.0000
vt 0.7659 0.5900 0.0000
vt 0.6559 0.6630 0.0000
vt 0.7659 0.6856 0.0000
vt 0.6563 0.9333 0.0000
vt 0.6563 0.8883 0.0000
vt 0.7660 0.9247 0.0000
vt 0.7660 0.9725 0.0000
vt 0.6562 0.8432 0.0000
vt 0.7660 0.8769 0.0000
vt 0.6561 0.7982 0.0000
vt 0.7660 0.8291 0.0000
vt 0.7658 0.5901 0.0000
vt 0.7659 0.6379 0.0000
vt 0.6558 0.6181 0.0000
vt 0.6557 0.5730 0.0000
vt 0.7659 0.6857 0.0000
vt 0.6559 0.6631 0.0000
vt 0.1529 0.0147 0.0000
vt 0.1529 0.0637 0.0000
vt 0.0306 0.0637 0.0000
vt 0.0306 0.0147 0.0000
vt 0.0306 0.2594 0.0000
vt 0.0306 0.2105 0.0000
vt 0.1529 0.2105 0.0000
vt 0.1529 0.2594 0.0000
vt 0.2946 0.0153 0.0000
vt 0.2946 0.0643 0.0000
vt 0.1723 0.0643 0.0000
vt 0.1723 0.0153 0.0000
vt 0.1723 0.2600 0.0000
vt 0.1723 0.2111 0.0000
vt 0.2946 0.2111 0.0000
vt 0.2946 0.2600 0.0000
# 228 texture coords

o Build_B_Top
g Build_B_Top
usemtl Builsings
s 2
f 1/1/1 2/2/1 3/3/1 
f 3/3/1 4/4/1 1/1/1 
s 4
f 5/5/2 6/6/2 7/7/2 
f 7/7/2 8/8/2 5/5/2 
s 8
f 9/9/3 10/10/3 11/11/3 
f 11/11/3 12/12/3 9/9/3 
s 16
f 13/13/4 14/14/4 15/15/4 
f 15/15/4 16/16/4 13/13/4 
s 32
f 17/17/5 18/18/5 19/19/5 
f 19/19/5 20/20/5 17/17/5 
s 64
f 21/21/6 22/22/6 23/23/6 
f 23/23/6 24/24/6 21/21/6 
s 8
f 25/25/3 26/26/3 27/27/3 
f 27/27/3 28/28/3 25/25/3 
f 26/26/3 29/29/3 30/30/3 
f 30/30/3 27/27/3 26/26/3 
f 29/29/3 31/31/3 32/32/3 
f 32/32/3 30/30/3 29/29/3 
f 31/31/3 9/9/3 12/12/3 
f 12/12/3 32/32/3 31/31/3 
f 33/33/3 34/34/3 35/35/3 
f 35/35/3 36/36/3 33/33/3 
f 34/34/3 37/37/3 38/38/3 
f 38/38/3 35/35/3 34/34/3 
f 37/37/3 11/11/3 10/10/3 
f 10/10/3 38/38/3 37/37/3 
s 16
f 39/39/4 40/40/4 41/41/4 
f 41/41/4 42/42/4 39/39/4 
f 40/40/4 43/43/4 44/44/4 
f 44/44/4 41/41/4 40/40/4 
f 43/43/4 45/45/4 46/46/4 
f 46/46/4 44/44/4 43/43/4 
f 45/45/4 13/13/4 16/16/4 
f 16/16/4 46/46/4 45/45/4 
f 47/47/4 48/48/4 49/49/4 
f 49/49/4 50/50/4 47/47/4 
f 48/48/4 51/51/4 52/52/4 
f 52/52/4 49/49/4 48/48/4 
f 51/51/4 15/15/4 14/14/4 
f 14/14/4 52/52/4 51/51/4 
s 32
f 53/53/5 54/54/5 55/55/5 
f 55/55/5 56/56/5 53/53/5 
f 54/54/5 57/57/5 58/58/5 
f 58/58/5 55/55/5 54/54/5 
f 57/57/5 59/59/5 60/60/5 
f 60/60/5 58/58/5 57/57/5 
f 59/59/5 17/17/5 20/20/5 
f 20/20/5 60/60/5 59/59/5 
f 61/61/5 62/62/5 63/63/5 
f 63/63/5 64/64/5 61/61/5 
f 62/62/5 65/65/5 66/66/5 
f 66/66/5 63/63/5 62/62/5 
f 65/65/5 19/19/5 18/18/5 
f 18/18/5 66/66/5 65/65/5 
s 64
f 67/67/6 68/68/6 69/69/6 
f 69/69/6 70/70/6 67/67/6 
f 68/68/6 71/71/6 72/72/6 
f 72/72/6 69/69/6 68/68/6 
f 71/71/6 73/73/6 74/74/6 
f 74/74/6 72/72/6 71/71/6 
f 73/73/6 21/21/6 24/24/6 
f 24/24/6 74/74/6 73/73/6 
f 75/75/6 76/76/6 77/77/6 
f 77/77/6 78/78/6 75/75/6 
f 76/76/6 79/79/6 80/80/6 
f 80/80/6 77/77/6 76/76/6 
f 79/79/6 23/23/6 22/22/6 
f 22/22/6 80/80/6 79/79/6 
s 2
f 50/81/1 81/82/1 82/83/1 
f 82/83/1 47/84/1 50/81/1 
f 81/82/1 1/1/1 4/4/1 
f 4/4/1 82/83/1 81/82/1 
f 78/85/1 83/86/1 84/87/1 
f 84/87/1 75/88/1 78/85/1 
f 83/86/1 3/3/1 2/2/1 
f 2/2/1 84/87/1 83/86/1 
s 4
f 42/89/2 85/90/2 86/91/2 
f 86/91/2 39/92/2 42/89/2 
f 85/90/2 5/5/2 8/8/2 
f 8/8/2 86/91/2 85/90/2 
f 70/93/2 87/94/2 88/95/2 
f 88/95/2 67/96/2 70/93/2 
f 87/94/2 7/7/2 6/6/2 
f 6/6/2 88/95/2 87/94/2 
s 8
f 89/97/3 90/98/3 91/99/3 
f 91/99/3 92/100/3 89/97/3 
f 92/100/3 91/99/3 10/10/3 
f 10/10/3 9/9/3 92/100/3 
f 93/101/3 94/102/3 95/103/3 
f 95/103/3 96/104/3 93/101/3 
f 96/104/3 95/103/3 12/12/3 
f 12/12/3 11/11/3 96/104/3 
s 32
f 97/105/5 98/106/5 99/107/5 
f 99/107/5 100/108/5 97/105/5 
f 100/108/5 99/107/5 18/18/5 
f 18/18/5 17/17/5 100/108/5 
f 101/109/5 102/110/5 103/111/5 
f 103/111/5 104/112/5 101/109/5 
f 104/112/5 103/111/5 20/20/5 
f 20/20/5 19/19/5 104/112/5 
s 8
f 105/113/3 106/114/3 107/115/3 
f 107/115/3 108/116/3 105/113/3 
f 108/116/3 107/115/3 26/26/3 
f 26/26/3 25/25/3 108/116/3 
f 109/117/3 110/118/3 111/119/3 
f 111/119/3 112/120/3 109/117/3 
f 112/120/3 111/119/3 28/28/3 
f 28/28/3 27/27/3 112/120/3 
f 106/114/3 113/121/3 114/122/3 
f 114/122/3 107/115/3 106/114/3 
f 107/115/3 114/122/3 29/29/3 
f 29/29/3 26/26/3 107/115/3 
f 115/123/3 109/117/3 112/120/3 
f 112/120/3 116/124/3 115/123/3 
f 116/124/3 112/120/3 27/27/3 
f 27/27/3 30/30/3 116/124/3 
f 113/121/3 117/125/3 118/126/3 
f 118/126/3 114/122/3 113/121/3 
f 114/122/3 118/126/3 31/31/3 
f 31/31/3 29/29/3 114/122/3 
f 119/127/3 115/123/3 116/124/3 
f 116/124/3 120/128/3 119/127/3 
f 120/128/3 116/124/3 30/30/3 
f 30/30/3 32/32/3 120/128/3 
f 117/125/3 89/97/3 92/100/3 
f 92/100/3 118/126/3 117/125/3 
f 118/126/3 92/100/3 9/9/3 
f 9/9/3 31/31/3 118/126/3 
f 94/102/3 119/127/3 120/128/3 
f 120/128/3 95/103/3 94/102/3 
f 95/103/3 120/128/3 32/32/3 
f 32/32/3 12/12/3 95/103/3 
f 121/129/3 122/130/3 123/131/3 
f 123/131/3 124/132/3 121/129/3 
f 124/132/3 123/131/3 34/34/3 
f 34/34/3 33/33/3 124/132/3 
f 125/133/3 126/134/3 127/135/3 
f 127/135/3 128/136/3 125/133/3 
f 128/136/3 127/135/3 36/36/3 
f 36/36/3 35/35/3 128/136/3 
f 122/130/3 129/137/3 130/138/3 
f 130/138/3 123/131/3 122/130/3 
f 123/131/3 130/138/3 37/37/3 
f 37/37/3 34/34/3 123/131/3 
f 131/139/3 125/133/3 128/136/3 
f 128/136/3 132/140/3 131/139/3 
f 132/140/3 128/136/3 35/35/3 
f 35/35/3 38/38/3 132/140/3 
f 129/137/3 93/101/3 96/104/3 
f 96/104/3 130/138/3 129/137/3 
f 130/138/3 96/104/3 11/11/3 
f 11/11/3 37/37/3 130/138/3 
f 90/98/3 131/139/3 132/140/3 
f 132/140/3 91/99/3 90/98/3 
f 91/99/3 132/140/3 38/38/3 
f 38/38/3 10/10/3 91/99/3 
s 32
f 133/141/5 134/142/5 135/143/5 
f 135/143/5 136/144/5 133/141/5 
f 136/144/5 135/143/5 54/54/5 
f 54/54/5 53/53/5 136/144/5 
f 137/145/5 138/146/5 139/147/5 
f 139/147/5 140/148/5 137/145/5 
f 140/148/5 139/147/5 56/56/5 
f 56/56/5 55/55/5 140/148/5 
f 134/142/5 141/149/5 142/150/5 
f 142/150/5 135/143/5 134/142/5 
f 135/143/5 142/150/5 57/57/5 
f 57/57/5 54/54/5 135/143/5 
f 143/151/5 137/145/5 140/148/5 
f 140/148/5 144/152/5 143/151/5 
f 144/152/5 140/148/5 55/55/5 
f 55/55/5 58/58/5 144/152/5 
f 141/149/5 145/153/5 146/154/5 
f 146/154/5 142/150/5 141/149/5 
f 142/150/5 146/154/5 59/59/5 
f 59/59/5 57/57/5 142/150/5 
f 147/155/5 143/151/5 144/152/5 
f 144/152/5 148/156/5 147/155/5 
f 148/156/5 144/152/5 58/58/5 
f 58/58/5 60/60/5 148/156/5 
f 145/153/5 97/105/5 100/108/5 
f 100/108/5 146/154/5 145/153/5 
f 146/154/5 100/108/5 17/17/5 
f 17/17/5 59/59/5 146/154/5 
f 102/110/5 147/155/5 148/156/5 
f 148/156/5 103/111/5 102/110/5 
f 103/111/5 148/156/5 60/60/5 
f 60/60/5 20/20/5 103/111/5 
f 149/157/5 150/158/5 151/159/5 
f 151/159/5 152/160/5 149/157/5 
f 152/160/5 151/159/5 62/62/5 
f 62/62/5 61/61/5 152/160/5 
f 153/161/5 154/162/5 155/163/5 
f 155/163/5 156/164/5 153/161/5 
f 156/164/5 155/163/5 64/64/5 
f 64/64/5 63/63/5 156/164/5 
f 150/158/5 157/165/5 158/166/5 
f 158/166/5 151/159/5 150/158/5 
f 151/159/5 158/166/5 65/65/5 
f 65/65/5 62/62/5 151/159/5 
f 159/167/5 153/161/5 156/164/5 
f 156/164/5 160/168/5 159/167/5 
f 160/168/5 156/164/5 63/63/5 
f 63/63/5 66/66/5 160/168/5 
f 157/165/5 101/109/5 104/112/5 
f 104/112/5 158/166/5 157/165/5 
f 158/166/5 104/112/5 19/19/5 
f 19/19/5 65/65/5 158/166/5 
f 98/106/5 159/167/5 160/168/5 
f 160/168/5 99/107/5 98/106/5 
f 99/107/5 160/168/5 66/66/5 
f 66/66/5 18/18/5 99/107/5 
s 2
f 33/169/1 36/170/1 2/2/1 
f 2/2/1 1/1/1 33/169/1 
f 61/171/1 64/172/1 4/4/1 
f 4/4/1 3/3/1 61/171/1 
s 4
f 53/173/2 56/174/2 6/6/2 
f 6/6/2 5/5/2 53/173/2 
f 25/175/2 28/176/2 8/8/2 
f 8/8/2 7/7/2 25/175/2 
s 16
f 94/177/4 93/178/4 14/14/4 
f 14/14/4 13/13/4 94/177/4 
f 98/179/4 97/180/4 16/16/4 
f 16/16/4 15/15/4 98/179/4 
s 64
f 102/181/6 101/182/6 22/22/6 
f 22/22/6 21/21/6 102/181/6 
f 90/183/6 89/184/6 24/24/6 
f 24/24/6 23/23/6 90/183/6 
s 16
f 110/185/4 109/186/4 40/40/4 
f 40/40/4 39/39/4 110/185/4 
f 134/187/4 133/188/4 42/42/4 
f 42/42/4 41/41/4 134/187/4 
f 109/186/4 115/189/4 43/43/4 
f 43/43/4 40/40/4 109/186/4 
f 141/190/4 134/187/4 41/41/4 
f 41/41/4 44/44/4 141/190/4 
f 115/189/4 119/191/4 45/45/4 
f 45/45/4 43/43/4 115/189/4 
f 145/192/4 141/190/4 44/44/4 
f 44/44/4 46/46/4 145/192/4 
f 119/191/4 94/177/4 13/13/4 
f 13/13/4 45/45/4 119/191/4 
f 97/180/4 145/192/4 46/46/4 
f 46/46/4 16/16/4 97/180/4 
f 154/193/4 153/194/4 48/48/4 
f 48/48/4 47/47/4 154/193/4 
f 122/195/4 121/196/4 50/50/4 
f 50/50/4 49/49/4 122/195/4 
f 153/194/4 159/197/4 51/51/4 
f 51/51/4 48/48/4 153/194/4 
f 129/198/4 122/195/4 49/49/4 
f 49/49/4 52/52/4 129/198/4 
f 159/197/4 98/179/4 15/15/4 
f 15/15/4 51/51/4 159/197/4 
f 93/178/4 129/198/4 52/52/4 
f 52/52/4 14/14/4 93/178/4 
s 64
f 138/199/6 137/200/6 68/68/6 
f 68/68/6 67/67/6 138/199/6 
f 106/201/6 105/202/6 70/70/6 
f 70/70/6 69/69/6 106/201/6 
f 137/200/6 143/203/6 71/71/6 
f 71/71/6 68/68/6 137/200/6 
f 113/204/6 106/201/6 69/69/6 
f 69/69/6 72/72/6 113/204/6 
f 143/203/6 147/205/6 73/73/6 
f 73/73/6 71/71/6 143/203/6 
f 117/206/6 113/204/6 72/72/6 
f 72/72/6 74/74/6 117/206/6 
f 147/205/6 102/181/6 21/21/6 
f 21/21/6 73/73/6 147/205/6 
f 89/184/6 117/206/6 74/74/6 
f 74/74/6 24/24/6 89/184/6 
f 126/207/6 125/208/6 76/76/6 
f 76/76/6 75/75/6 126/207/6 
f 150/209/6 149/210/6 78/78/6 
f 78/78/6 77/77/6 150/209/6 
f 125/208/6 131/211/6 79/79/6 
f 79/79/6 76/76/6 125/208/6 
f 157/212/6 150/209/6 77/77/6 
f 77/77/6 80/80/6 157/212/6 
f 131/211/6 90/183/6 23/23/6 
f 23/23/6 79/79/6 131/211/6 
f 101/182/6 157/212/6 80/80/6 
f 80/80/6 22/22/6 101/182/6 
s 2
f 121/213/1 124/214/1 81/82/1 
f 81/82/1 50/81/1 121/213/1 
f 155/215/1 154/216/1 47/84/1 
f 47/84/1 82/83/1 155/215/1 
f 124/214/1 33/169/1 1/1/1 
f 1/1/1 81/82/1 124/214/1 
f 64/172/1 155/215/1 82/83/1 
f 82/83/1 4/4/1 64/172/1 
f 149/217/1 152/218/1 83/86/1 
f 83/86/1 78/85/1 149/217/1 
f 127/219/1 126/220/1 75/88/1 
f 75/88/1 84/87/1 127/219/1 
f 152/218/1 61/171/1 3/3/1 
f 3/3/1 83/86/1 152/218/1 
f 36/170/1 127/219/1 84/87/1 
f 84/87/1 2/2/1 36/170/1 
s 4
f 133/221/2 136/222/2 85/90/2 
f 85/90/2 42/89/2 133/221/2 
f 111/223/2 110/224/2 39/92/2 
f 39/92/2 86/91/2 111/223/2 
f 136/222/2 53/173/2 5/5/2 
f 5/5/2 85/90/2 136/222/2 
f 28/176/2 111/223/2 86/91/2 
f 86/91/2 8/8/2 28/176/2 
f 105/225/2 108/226/2 87/94/2 
f 87/94/2 70/93/2 105/225/2 
f 139/227/2 138/228/2 67/96/2 
f 67/96/2 88/95/2 139/227/2 
f 108/226/2 25/175/2 7/7/2 
f 7/7/2 87/94/2 108/226/2 
f 56/174/2 139/227/2 88/95/2 
f 88/95/2 6/6/2 56/174/2 
# 316 faces

